<svg width="63" height="63" viewBox="0 0 63 63" fill="none" xmlns="http://www.w3.org/2000/svg">
<circle cx="31.5" cy="31.5" r="31.5" fill="#D9D9D9"/>
<path d="M16.7 18.6667H22.25L25.95 15H37.05L40.75 18.6667H46.3C47.2813 18.6667 48.2224 19.053 48.9163 19.7406C49.6102 20.4282 50 21.3609 50 22.3333V44.3333C50 45.3058 49.6102 46.2384 48.9163 46.9261C48.2224 47.6137 47.2813 48 46.3 48H16.7C15.7187 48 14.7776 47.6137 14.0837 46.9261C13.3898 46.2384 13 45.3058 13 44.3333V22.3333C13 21.3609 13.3898 20.4282 14.0837 19.7406C14.7776 19.053 15.7187 18.6667 16.7 18.6667ZM31.5 24.1667C29.0467 24.1667 26.694 25.1324 24.9593 26.8515C23.2246 28.5706 22.25 30.9022 22.25 33.3333C22.25 35.7645 23.2246 38.0961 24.9593 39.8151C26.694 41.5342 29.0467 42.5 31.5 42.5C33.9533 42.5 36.306 41.5342 38.0407 39.8151C39.7754 38.0961 40.75 35.7645 40.75 33.3333C40.75 30.9022 39.7754 28.5706 38.0407 26.8515C36.306 25.1324 33.9533 24.1667 31.5 24.1667ZM31.5 27.8333C32.972 27.8333 34.3836 28.4128 35.4244 29.4442C36.4653 30.4757 37.05 31.8746 37.05 33.3333C37.05 34.792 36.4653 36.191 35.4244 37.2224C34.3836 38.2539 32.972 38.8333 31.5 38.8333C30.028 38.8333 28.6164 38.2539 27.5756 37.2224C26.5347 36.191 25.95 34.792 25.95 33.3333C25.95 31.8746 26.5347 30.4757 27.5756 29.4442C28.6164 28.4128 30.028 27.8333 31.5 27.8333Z" fill="#9B9B9B"/>
</svg>
