<svg width="20" height="19" viewBox="0 0 20 19" fill="none" xmlns="http://www.w3.org/2000/svg">
<path d="M1.10013 8.3L4.70013 11.6L3.70013 16.2C3.60013 16.8 3.80013 17.4 4.30013 17.7C4.50013 17.9 4.80013 18 5.10013 18C5.30013 18 5.50013 18 5.70013 17.9C5.70013 17.9 5.80013 17.9 5.80013 17.8L9.90013 15.5L14.0001 17.8C14.0001 17.8 14.1001 17.8 14.1001 17.9C14.6001 18.1 15.2001 18.1 15.6001 17.8C16.1001 17.5 16.3001 16.9 16.2001 16.3L15.2001 11.7C15.6001 11.4 16.2001 10.8 16.8001 10.2L18.7001 8.5L18.8001 8.4C19.2001 8 19.3001 7.4 19.1001 6.9C18.9001 6.4 18.5001 6 17.9001 5.9H17.8001L13.1001 5.4L11.2001 1.1C11.2001 1.1 11.2001 1 11.1001 1C11.0001 0.3 10.5001 0 10.0001 0C9.50013 0 9.00013 0.3 8.70013 0.8C8.70013 0.8 8.70013 0.9 8.60013 0.9L6.70013 5.2L2.00013 5.7H1.90013C1.40013 5.8 0.900131 6.2 0.70013 6.7C0.60013 7.3 0.70013 7.9 1.10013 8.3Z" fill="#D9D9D9"/>
</svg>
