<svg width="383" height="70" viewBox="0 0 383 70" fill="none" xmlns="http://www.w3.org/2000/svg">
<path d="M0.805859 -4.76837e-06H27.4059C31.6059 1.4 35.1725 4 38.1059 7.8C41.1059 11.5333 42.6059 16.1333 42.6059 21.6C42.6059 30.5333 39.0725 37.1 32.0059 41.3L42.1059 70H28.1059L19.6059 44.5H14.3059V70H0.805859V-4.76837e-06ZM14.3059 12V33.3H22.9059C24.0392 33.0333 25.2725 31.9 26.6059 29.9C28.0059 27.8333 28.7059 25.4333 28.7059 22.7C28.7059 19.9667 28.1059 17.5667 26.9059 15.5C25.7725 13.4333 24.6392 12.2667 23.5059 12H14.3059ZM79.6293 70L77.5293 58.9H61.7293L59.6293 70H46.0293L59.5293 -4.76837e-06H80.2293L93.0293 70H79.6293ZM69.4293 13L65.5293 36.3L63.3293 48.2H75.8293L73.5293 36.3L69.6293 13H69.4293ZM112.353 12V37H121.253C124.919 34 126.753 29.6 126.753 23.8C126.753 21.3333 126.253 19 125.253 16.8C124.319 14.6 123.186 13 121.853 12H112.353ZM98.8527 70V-4.76837e-06H125.953C130.486 2 134.053 5.06666 136.653 9.2C139.319 13.3333 140.653 18.1667 140.653 23.7C140.653 29.1667 139.286 34.2333 136.553 38.9C133.819 43.5667 129.786 46.8667 124.453 48.8H112.353V70H98.8527ZM173.282 70L171.182 58.9H155.382L153.282 70H139.682L153.182 -4.76837e-06H173.882L186.682 70H173.282ZM163.082 13L159.182 36.3L156.982 48.2H169.482L167.182 36.3L163.282 13H163.082Z" fill="#442A77"/>
<path d="M224.729 70H203.529C198.729 65.6 195.229 60.3667 193.029 54.3C190.829 48.2333 189.729 41.9 189.729 35.3C189.729 28.6333 191.062 22.0667 193.729 15.6C196.395 9.13333 200.129 3.93333 204.929 -4.76837e-06H229.229V12H210.629C208.895 14 207.395 17.1667 206.129 21.5C204.862 25.7667 204.229 30.3333 204.229 35.2C204.229 40 204.795 44.6 205.929 49C207.129 53.3333 208.595 56.4667 210.329 58.4H219.929V31.2H233.129V48C233.129 57.2 230.329 64.5333 224.729 70ZM273.543 -4.76837e-06C278.209 3.8 281.676 8.9 283.943 15.3C286.209 21.7 287.343 28.3 287.343 35.1C287.343 41.8333 286.243 48.2333 284.043 54.3C281.843 60.3667 278.343 65.6 273.543 70H252.943C248.143 65.6 244.643 60.3667 242.443 54.3C240.243 48.2333 239.143 41.8333 239.143 35.1C239.143 28.3 240.276 21.7 242.543 15.3C244.809 8.9 248.276 3.8 252.943 -4.76837e-06H273.543ZM259.643 58.4H266.843C268.509 56.4667 269.909 53.3333 271.043 49C272.243 44.6 272.843 39.9667 272.843 35.1C272.843 30.2333 272.276 25.6667 271.143 21.4C270.009 17.0667 268.609 13.9333 266.943 12H259.643C257.976 13.9333 256.543 17.0667 255.343 21.4C254.209 25.6667 253.643 30.2333 253.643 35.1C253.643 39.9667 254.209 44.6 255.343 49C256.543 53.3333 257.976 56.4667 259.643 58.4ZM308.642 12V37H317.542C321.208 34 323.042 29.6 323.042 23.8C323.042 21.3333 322.542 19 321.542 16.8C320.608 14.6 319.475 13 318.142 12H308.642ZM295.142 70V-4.76837e-06H322.242C326.775 2 330.342 5.06666 332.942 9.2C335.608 13.3333 336.942 18.1667 336.942 23.7C336.942 29.1667 335.575 34.2333 332.842 38.9C330.108 43.5667 326.075 46.8667 320.742 48.8H308.642V70H295.142ZM369.571 70L367.471 58.9H351.671L349.571 70H335.971L349.471 -4.76837e-06H370.171L382.971 70H369.571ZM359.371 13L355.471 36.3L353.271 48.2H365.771L363.471 36.3L359.571 13H359.371Z" fill="#F7981F"/>
</svg>
