<svg width="235" height="235" viewBox="0 0 235 235" fill="none" xmlns="http://www.w3.org/2000/svg">
<circle cx="117.5" cy="117.5" r="117.5" fill="#EEEEEE"/>
<path d="M118.015 123.899C134.582 123.899 149.648 128.697 160.732 135.46C166.263 138.834 170.993 142.816 174.408 147.145C177.769 151.397 180.244 156.486 180.244 161.928C180.244 167.77 177.402 172.375 173.309 175.659C169.437 178.771 164.327 180.831 158.9 182.269C147.989 185.153 133.427 186.128 118.015 186.128C102.603 186.128 88.0419 185.16 77.1312 182.269C71.7034 180.831 66.5938 178.771 62.7218 175.659C58.6216 172.368 55.7867 167.77 55.7867 161.928C55.7867 156.486 58.2621 151.397 61.6224 147.138C65.0381 142.816 69.7605 138.841 75.2989 135.453C86.3825 128.704 101.456 123.899 118.015 123.899ZM118.015 47.8417C127.184 47.8417 135.978 51.4841 142.461 57.9675C148.944 64.4509 152.587 73.2443 152.587 82.4132C152.587 91.5821 148.944 100.375 142.461 106.859C135.978 113.342 127.184 116.985 118.015 116.985C108.846 116.985 100.053 113.342 93.5697 106.859C87.0862 100.375 83.4439 91.5821 83.4439 82.4132C83.4439 73.2443 87.0862 64.4509 93.5697 57.9675C100.053 51.4841 108.846 47.8417 118.015 47.8417Z" fill="#9B9B9B"/>
</svg>
